# xmcd
#
# Track frame offsets:
#	150
#	12822
#	24441
#	35807
#	49272
#	62704
#	73032
#	85507
#	99249
#	111040
#	124595
#	137561
#	150850
#	165781
#	178393
#	193619
#
# Disc length: 2766 seconds
#
# Revision: 0
# Processed by: cddbd v1.5.2PL0 Copyright (c) Steve Scherf et al.
# Submitted via: audiograbber 1.83.01
#
DISCID=c20acc10
DTITLE=Mantovani and His Orchestra - Waltzes Of Irving Berlin
DYEAR=1900
DGENRE=
TTITLE0=All Alone
TTITLE1=Reaching For the Move
TTITLE2=Because I Love You
TTITLE3=The Song Is Ended
TTITLE4=For The Very First Time
TTITLE5=I Can`t Remember
TTITLE6=Russian Lullaby
TTITLE7=Always
TTITLE8=Marie
TTITLE9=The Girl That I Marry
TTITLE10=I forgot To Remember
TTITLE11=What`ll I Do
TTITLE12=Blue Danube
TTITLE13=Voices Of Spring
TTITLE14=Emperor Waltz
TTITLE15=Tales From The Vienna Woods
EXTD=
EXTT0=
EXTT1=
EXTT2=
EXTT3=
EXTT4=
EXTT5=
EXTT6=
EXTT7=
EXTT8=
EXTT9=
EXTT10=
EXTT11=
EXTT12=
EXTT13=
EXTT14=
EXTT15=
PLAYORDER=
